<svg width="5864" height="2012" viewBox="0 0 5864 2012" fill="none" xmlns="http://www.w3.org/2000/svg">
<g id="logo">
<g id="wing_alone" filter="url(#filter0_dd)">
<path d="M765.917 590.567C766.564 586.943 764.822 583.311 761.591 581.547L680 537L659 528.5L655.174 527.502C642.554 524.21 629.354 523.807 616.557 526.325V526.325C609.217 527.769 602.094 530.157 595.366 533.43L568.5 546.5L455.5 618.5L396 660.5V660.5C394.628 661.239 395.528 663.324 397.007 662.831L422 654.5L464 639.5L528.5 618.5L580.5 605L636 595L681.34 591.61C686.771 591.204 692.226 591.242 697.65 591.724L734.5 595L756.496 597.566C760.993 598.091 765.121 595.024 765.917 590.567V590.567Z" fill="url(#paint0_diamond)"/>
<path d="M396.237 660.94L396 660.5L396.288 660.908L455.779 618.915L568.744 546.937L595.585 533.88C602.274 530.626 609.356 528.251 616.654 526.815C629.377 524.313 642.5 524.713 655.047 527.986L658.842 528.976L679.786 537.453L761.351 581.986C764.394 583.647 766.034 587.067 765.424 590.479C764.675 594.676 760.788 597.564 756.554 597.07L734.558 594.503L734.544 594.502L697.694 591.226C692.243 590.742 686.761 590.703 681.303 591.111L635.963 594.501L635.937 594.503L635.911 594.508L580.411 604.508L580.393 604.511L580.374 604.516L528.374 618.016L528.36 618.02L528.345 618.025L463.845 639.025L463.845 639.024L463.832 639.029L421.842 654.026L421.832 654.029L396.849 662.357C395.95 662.656 395.403 661.389 396.237 660.94Z" stroke="black"/>
</g>
<g id="Vector 4" filter="url(#filter1_d)">
<path d="M535 996C570.248 952.789 590.39 933.107 630.5 948C664.22 965.595 687.335 970.455 737.5 968.5C765.896 966.163 775.921 971.935 789 988C830.616 989.758 830.857 1014.37 833 1056.5C860.441 1111.32 846.427 1131 818.5 1165C875.459 1202.24 893.228 1234.91 888.5 1323.5C885.8 1386.01 858.984 1418.84 789.5 1475.5C747.439 1499.19 731.215 1503.05 715.5 1493C641.275 1624.96 592.751 1634.19 504 1630C432.728 1623.65 405.709 1596.23 390.5 1486.5C338.736 1494.82 309.51 1502.98 262 1438.5C223.77 1370.32 216.57 1329.77 244.5 1251.5C266.447 1216.5 276.437 1205.24 292.5 1191.5C284.747 1171.93 279.863 1161.46 279 1135.5C280.5 1095.96 283.323 1073.92 335.5 1037.5C398.258 961.256 430.474 970.843 488.5 978L535 996Z" fill="url(#paint1_radial)"/>
<path d="M535 996C570.248 952.789 590.39 933.107 630.5 948C664.22 965.595 687.335 970.455 737.5 968.5C765.896 966.163 775.921 971.935 789 988C830.616 989.758 830.857 1014.37 833 1056.5C860.441 1111.32 846.427 1131 818.5 1165C875.459 1202.24 893.228 1234.91 888.5 1323.5C885.8 1386.01 858.984 1418.84 789.5 1475.5C747.439 1499.19 731.215 1503.05 715.5 1493C641.275 1624.96 592.751 1634.19 504 1630C432.728 1623.65 405.709 1596.23 390.5 1486.5C338.736 1494.82 309.51 1502.98 262 1438.5C223.77 1370.32 216.57 1329.77 244.5 1251.5C266.447 1216.5 276.437 1205.24 292.5 1191.5C284.747 1171.93 279.863 1161.46 279 1135.5C280.5 1095.96 283.323 1073.92 335.5 1037.5C398.258 961.256 430.474 970.843 488.5 978L535 996Z" fill="url(#paint2_linear)"/>
<path d="M535 996C570.248 952.789 590.39 933.107 630.5 948C664.22 965.595 687.335 970.455 737.5 968.5C765.896 966.163 775.921 971.935 789 988C830.616 989.758 830.856 1014.37 833 1056.5C860.441 1111.32 846.427 1131 818.5 1165M535 996L488.5 978C430.474 970.843 398.258 961.256 335.5 1037.5C283.323 1073.92 280.5 1095.96 279 1135.5C279.863 1161.46 284.747 1171.93 292.5 1191.5M535 996C589.366 1027.7 549.133 1211.84 559.877 1251.5M818.5 1165C737.61 1239.41 641.5 1176 581.5 1247.5C575.517 1254.63 570.947 1258.24 567.5 1258.91M818.5 1165C875.459 1202.24 893.228 1234.91 888.5 1323.5C885.8 1386.01 858.984 1418.84 789.5 1475.5C747.439 1499.19 731.215 1503.05 715.5 1493M292.5 1191.5C338.248 1163.68 368.994 1164.15 434 1197L559.877 1251.5M292.5 1191.5C276.437 1205.24 266.447 1216.5 244.5 1251.5C216.57 1329.77 223.77 1370.32 262 1438.5C309.51 1502.98 338.736 1494.82 390.5 1486.5M559.877 1251.5C561.344 1256.92 563.761 1259.64 567.5 1258.91M559.877 1251.5L492.5 1309.5L390.5 1486.5M715.5 1493C679.223 1441.87 661.35 1410.7 635 1349.5C600.221 1289.03 584.31 1265.82 567.5 1258.91M715.5 1493C641.275 1624.96 592.751 1634.19 504 1630C432.728 1623.65 405.709 1596.23 390.5 1486.5" stroke="black"/>
</g>
<g id="Mask Group">
<g id="body" filter="url(#filter2_d)">
<path d="M934.194 463.298L939 464.5L960.5 468L979 473L1005 478L1032.5 482L1075.5 486.5L1103 491L1140.76 497C1151.24 498.664 1161.56 501.159 1171.64 504.46L1185.5 509L1200.55 515.946C1212.16 521.303 1223.22 527.761 1233.6 535.231L1243 542L1282 573.5L1300.5 592.5L1315.7 613.064C1322.55 622.337 1328.59 632.186 1333.75 642.5L1334.5 644L1358.5 684L1388.5 740.5L1403.17 770.997C1406.05 776.99 1408.47 783.196 1410.4 789.56L1412.68 797.068C1414.88 804.316 1416 811.85 1416 819.424V826.84C1416 831.571 1415.11 836.26 1413.38 840.664C1411.48 845.503 1408.59 849.91 1404.91 853.586C1401.35 857.151 1397.1 859.983 1392.43 861.893L1391.51 862.268C1389.51 863.088 1387.44 863.755 1385.34 864.264L1384.94 864.358C1377.75 866.096 1370.24 866.151 1363.02 864.52L1362.81 864.473C1359.94 863.826 1357.14 862.922 1354.43 861.773L1322 848L1278.5 834L1243 822L1204 808L1178.5 797L1173.05 794.029C1162.04 788.023 1151.62 780.994 1141.93 773.036L1123 757.5L1091.5 729L1078.91 716.14C1071.98 709.056 1065.58 701.468 1059.78 693.436L1045 673L1022.5 649L1016.08 642.12C1011.07 636.754 1005.1 632.377 998.476 629.216C990.592 625.453 981.966 623.5 973.23 623.5H967.012C962.677 623.5 958.348 623.827 954.062 624.48L937.5 627L905.5 634L861.603 645.654C853.213 647.881 845.008 650.752 837.061 654.242L826.776 658.757C814.367 664.205 803.083 671.917 793.5 681.5L772 705.5L738.5 749L713.5 788L689 826L672.5 859.5L638 932L619.5 991L588.5 1096.5L575.029 1150.87C574.718 1152.12 573.593 1153 572.301 1153C570.57 1153 569.251 1151.45 569.527 1149.74L580 1085L595 1019L610.5 963.5L619.5 932L638 880L669 810L683 778L710.5 730L735.749 685.717C740.576 677.25 744.779 668.442 748.322 659.362L751 652.5L761 623.5L768 601L772 583.5L776.567 568.992C779.185 560.677 782.458 552.583 786.357 544.787L787.575 542.351C790.853 535.795 794.67 529.523 798.989 523.601C806.293 513.584 814.972 504.644 824.769 497.047L834.5 489.5L854.906 477.475C859.962 474.496 865.226 471.883 870.656 469.657L875.917 467.501C887.197 462.878 899.271 460.5 911.461 460.5C919.125 460.5 926.759 461.44 934.194 463.298Z" fill="url(#paint3_radial)"/>
<path d="M934.194 463.298L939 464.5L960.5 468L979 473L1005 478L1032.5 482L1075.5 486.5L1103 491L1140.76 497C1151.24 498.664 1161.56 501.159 1171.64 504.46L1185.5 509L1200.55 515.946C1212.16 521.303 1223.22 527.761 1233.6 535.231L1243 542L1282 573.5L1300.5 592.5L1315.7 613.064C1322.55 622.337 1328.59 632.186 1333.75 642.5L1334.5 644L1358.5 684L1388.5 740.5L1403.17 770.997C1406.05 776.99 1408.47 783.196 1410.4 789.56L1412.68 797.068C1414.88 804.316 1416 811.85 1416 819.424V826.84C1416 831.571 1415.11 836.26 1413.38 840.664C1411.48 845.503 1408.59 849.91 1404.91 853.586C1401.35 857.151 1397.1 859.983 1392.43 861.893L1391.51 862.268C1389.51 863.088 1387.44 863.755 1385.34 864.264L1384.94 864.358C1377.75 866.096 1370.24 866.151 1363.02 864.52L1362.81 864.473C1359.94 863.826 1357.14 862.922 1354.43 861.773L1322 848L1278.5 834L1243 822L1204 808L1178.5 797L1173.05 794.029C1162.04 788.023 1151.62 780.994 1141.93 773.036L1123 757.5L1091.5 729L1078.91 716.14C1071.98 709.056 1065.58 701.468 1059.78 693.436L1045 673L1022.5 649L1016.08 642.12C1011.07 636.754 1005.1 632.377 998.476 629.216C990.592 625.453 981.966 623.5 973.23 623.5H967.012C962.677 623.5 958.348 623.827 954.062 624.48L937.5 627L905.5 634L861.603 645.654C853.213 647.881 845.008 650.752 837.061 654.242L826.776 658.757C814.367 664.205 803.083 671.917 793.5 681.5L772 705.5L738.5 749L713.5 788L689 826L672.5 859.5L638 932L619.5 991L588.5 1096.5L575.029 1150.87C574.718 1152.12 573.593 1153 572.301 1153C570.57 1153 569.251 1151.45 569.527 1149.74L580 1085L595 1019L610.5 963.5L619.5 932L638 880L669 810L683 778L710.5 730L735.749 685.717C740.576 677.25 744.779 668.442 748.322 659.362L751 652.5L761 623.5L768 601L772 583.5L776.567 568.992C779.185 560.677 782.458 552.583 786.357 544.787L787.575 542.351C790.853 535.795 794.67 529.523 798.989 523.601C806.293 513.584 814.972 504.644 824.769 497.047L834.5 489.5L854.906 477.475C859.962 474.496 865.226 471.883 870.656 469.657L875.917 467.501C887.197 462.878 899.271 460.5 911.461 460.5C919.125 460.5 926.759 461.44 934.194 463.298Z" fill="url(#paint4_linear)"/>
<path d="M934.194 463.298L939 464.5L960.5 468L979 473L1005 478L1032.5 482L1075.5 486.5L1103 491L1140.76 497C1151.24 498.664 1161.56 501.159 1171.64 504.46L1185.5 509L1200.55 515.946C1212.16 521.303 1223.22 527.761 1233.6 535.231L1243 542L1282 573.5L1300.5 592.5L1315.7 613.064C1322.55 622.337 1328.59 632.186 1333.75 642.5L1334.5 644L1358.5 684L1388.5 740.5L1403.17 770.997C1406.05 776.99 1408.47 783.196 1410.4 789.56L1412.68 797.068C1414.88 804.316 1416 811.85 1416 819.424V826.84C1416 831.571 1415.11 836.26 1413.38 840.664C1411.48 845.503 1408.59 849.91 1404.91 853.586C1401.35 857.151 1397.1 859.983 1392.43 861.893L1391.51 862.268C1389.51 863.088 1387.44 863.755 1385.34 864.264L1384.94 864.358C1377.75 866.096 1370.24 866.151 1363.02 864.52L1362.81 864.473C1359.94 863.826 1357.14 862.922 1354.43 861.773L1322 848L1278.5 834L1243 822L1204 808L1178.5 797L1173.05 794.029C1162.04 788.023 1151.62 780.994 1141.93 773.036L1123 757.5L1091.5 729L1078.91 716.14C1071.98 709.056 1065.58 701.468 1059.78 693.436L1045 673L1022.5 649L1016.08 642.12C1011.07 636.754 1005.1 632.377 998.476 629.216C990.592 625.453 981.966 623.5 973.23 623.5H967.012C962.677 623.5 958.348 623.827 954.062 624.48L937.5 627L905.5 634L861.603 645.654C853.213 647.881 845.008 650.752 837.061 654.242L826.776 658.757C814.367 664.205 803.083 671.917 793.5 681.5L772 705.5L738.5 749L713.5 788L689 826L672.5 859.5L638 932L619.5 991L588.5 1096.5L575.029 1150.87C574.718 1152.12 573.593 1153 572.301 1153C570.57 1153 569.251 1151.45 569.527 1149.74L580 1085L595 1019L610.5 963.5L619.5 932L638 880L669 810L683 778L710.5 730L735.749 685.717C740.576 677.25 744.779 668.442 748.322 659.362L751 652.5L761 623.5L768 601L772 583.5L776.567 568.992C779.185 560.677 782.458 552.583 786.357 544.787L787.575 542.351C790.853 535.795 794.67 529.523 798.989 523.601C806.293 513.584 814.972 504.644 824.769 497.047L834.5 489.5L854.906 477.475C859.962 474.496 865.226 471.883 870.656 469.657L875.917 467.501C887.197 462.878 899.271 460.5 911.461 460.5C919.125 460.5 926.759 461.44 934.194 463.298Z" fill="url(#paint5_radial)"/>
<path d="M934.194 463.298L939 464.5L960.5 468L979 473L1005 478L1032.5 482L1075.5 486.5L1103 491L1140.76 497C1151.24 498.664 1161.56 501.159 1171.64 504.46L1185.5 509L1200.55 515.946C1212.16 521.303 1223.22 527.761 1233.6 535.231L1243 542L1282 573.5L1300.5 592.5L1315.7 613.064C1322.55 622.337 1328.59 632.186 1333.75 642.5L1334.5 644L1358.5 684L1388.5 740.5L1403.17 770.997C1406.05 776.99 1408.47 783.196 1410.4 789.56L1412.68 797.068C1414.88 804.316 1416 811.85 1416 819.424V826.84C1416 831.571 1415.11 836.26 1413.38 840.664C1411.48 845.503 1408.59 849.91 1404.91 853.586C1401.35 857.151 1397.1 859.983 1392.43 861.893L1391.51 862.268C1389.51 863.088 1387.44 863.755 1385.34 864.264L1384.94 864.358C1377.75 866.096 1370.24 866.151 1363.02 864.52L1362.81 864.473C1359.94 863.826 1357.14 862.922 1354.43 861.773L1322 848L1278.5 834L1243 822L1204 808L1178.5 797L1173.05 794.029C1162.04 788.023 1151.62 780.994 1141.93 773.036L1123 757.5L1091.5 729L1078.91 716.14C1071.98 709.056 1065.58 701.468 1059.78 693.436L1045 673L1022.5 649L1016.08 642.12C1011.07 636.754 1005.1 632.377 998.476 629.216C990.592 625.453 981.966 623.5 973.23 623.5H967.012C962.677 623.5 958.348 623.827 954.062 624.48L937.5 627L905.5 634L861.603 645.654C853.213 647.881 845.008 650.752 837.061 654.242L826.776 658.757C814.367 664.205 803.083 671.917 793.5 681.5L772 705.5L738.5 749L713.5 788L689 826L672.5 859.5L638 932L619.5 991L588.5 1096.5L575.029 1150.87C574.718 1152.12 573.593 1153 572.301 1153C570.57 1153 569.251 1151.45 569.527 1149.74L580 1085L595 1019L610.5 963.5L619.5 932L638 880L669 810L683 778L710.5 730L735.749 685.717C740.576 677.25 744.779 668.442 748.322 659.362L751 652.5L761 623.5L768 601L772 583.5L776.567 568.992C779.185 560.677 782.458 552.583 786.357 544.787L787.575 542.351C790.853 535.795 794.67 529.523 798.989 523.601C806.293 513.584 814.972 504.644 824.769 497.047L834.5 489.5L854.906 477.475C859.962 474.496 865.226 471.883 870.656 469.657L875.917 467.501C887.197 462.878 899.271 460.5 911.461 460.5C919.125 460.5 926.759 461.44 934.194 463.298Z" fill="url(#paint6_linear)"/>
<path d="M934.194 463.298L939 464.5L960.5 468L979 473L1005 478L1032.5 482L1075.5 486.5L1103 491L1140.76 497C1151.24 498.664 1161.56 501.159 1171.64 504.46L1185.5 509L1200.55 515.946C1212.16 521.303 1223.22 527.761 1233.6 535.231L1243 542L1282 573.5L1300.5 592.5L1315.7 613.064C1322.55 622.337 1328.59 632.186 1333.75 642.5L1334.5 644L1358.5 684L1388.5 740.5L1403.17 770.997C1406.05 776.99 1408.47 783.196 1410.4 789.56L1412.68 797.068C1414.88 804.316 1416 811.85 1416 819.424V826.84C1416 831.571 1415.11 836.26 1413.38 840.664C1411.48 845.503 1408.59 849.91 1404.91 853.586C1401.35 857.151 1397.1 859.983 1392.43 861.893L1391.51 862.268C1389.51 863.088 1387.44 863.755 1385.34 864.264L1384.94 864.358C1377.75 866.096 1370.24 866.151 1363.02 864.52L1362.81 864.473C1359.94 863.826 1357.14 862.922 1354.43 861.773L1322 848L1278.5 834L1243 822L1204 808L1178.5 797L1173.05 794.029C1162.04 788.023 1151.62 780.994 1141.93 773.036L1123 757.5L1091.5 729L1078.91 716.14C1071.98 709.056 1065.58 701.468 1059.78 693.436L1045 673L1022.5 649L1016.08 642.12C1011.07 636.754 1005.1 632.377 998.476 629.216C990.592 625.453 981.966 623.5 973.23 623.5H967.012C962.677 623.5 958.348 623.827 954.062 624.48L937.5 627L905.5 634L861.603 645.654C853.213 647.881 845.008 650.752 837.061 654.242L826.776 658.757C814.367 664.205 803.083 671.917 793.5 681.5L772 705.5L738.5 749L713.5 788L689 826L672.5 859.5L638 932L619.5 991L588.5 1096.5L575.029 1150.87C574.718 1152.12 573.593 1153 572.301 1153C570.57 1153 569.251 1151.45 569.527 1149.74L580 1085L595 1019L610.5 963.5L619.5 932L638 880L669 810L683 778L710.5 730L735.749 685.717C740.576 677.25 744.779 668.442 748.322 659.362L751 652.5L761 623.5L768 601L772 583.5L776.567 568.992C779.185 560.677 782.458 552.583 786.357 544.787L787.575 542.351C790.853 535.795 794.67 529.523 798.989 523.601C806.293 513.584 814.972 504.644 824.769 497.047L834.5 489.5L854.906 477.475C859.962 474.496 865.226 471.883 870.656 469.657L875.917 467.501C887.197 462.878 899.271 460.5 911.461 460.5C919.125 460.5 926.759 461.44 934.194 463.298Z" stroke="black" stroke-width="0.4"/>
</g>
</g>
<g id="TAIL" filter="url(#filter3_d)">
<path d="M1638 908L1721.5 948.5L1734.1 955.1C1739.56 957.961 1743.98 962.468 1746.74 967.982C1747.91 970.317 1748.76 972.797 1749.27 975.357L1751.88 988.383C1752.62 992.119 1753 995.919 1753 999.728V1005.62C1753 1011.77 1751.4 1017.81 1748.37 1023.16L1746.41 1026.61C1743.87 1031.08 1739.95 1034.61 1735.24 1036.65C1730.23 1038.82 1724.63 1039.19 1719.39 1037.71L1710.73 1035.26C1706.6 1034.09 1702.63 1032.38 1698.94 1030.18L1674.3 1015.45C1665.45 1010.16 1657.02 1004.19 1649.08 997.598L1625.5 978L1554.5 924L1493.5 879.5L1425.36 834.072C1424.79 833.691 1424.25 833.266 1423.74 832.801L1410.58 820.676C1406.46 816.879 1409.15 810 1414.75 810C1415.58 810 1416.39 810.165 1417.15 810.485L1519 853.5L1638 908Z" fill="url(#paint7_radial)"/>
<path d="M1638 908L1721.5 948.5L1734.1 955.1C1739.56 957.961 1743.98 962.468 1746.74 967.982C1747.91 970.317 1748.76 972.797 1749.27 975.357L1751.88 988.383C1752.62 992.119 1753 995.919 1753 999.728V1005.62C1753 1011.77 1751.4 1017.81 1748.37 1023.16L1746.41 1026.61C1743.87 1031.08 1739.95 1034.61 1735.24 1036.65C1730.23 1038.82 1724.63 1039.19 1719.39 1037.71L1710.73 1035.26C1706.6 1034.09 1702.63 1032.38 1698.94 1030.18L1674.3 1015.45C1665.45 1010.16 1657.02 1004.19 1649.08 997.598L1625.5 978L1554.5 924L1493.5 879.5L1425.36 834.072C1424.79 833.691 1424.25 833.266 1423.74 832.801L1410.58 820.676C1406.46 816.879 1409.15 810 1414.75 810C1415.58 810 1416.39 810.165 1417.15 810.485L1519 853.5L1638 908Z" fill="url(#paint8_linear)"/>
<path d="M1638 908L1721.5 948.5L1734.1 955.1C1739.56 957.961 1743.98 962.468 1746.74 967.982C1747.91 970.317 1748.76 972.797 1749.27 975.357L1751.88 988.383C1752.62 992.119 1753 995.919 1753 999.728V1005.62C1753 1011.77 1751.4 1017.81 1748.37 1023.16L1746.41 1026.61C1743.87 1031.08 1739.95 1034.61 1735.24 1036.65C1730.23 1038.82 1724.63 1039.19 1719.39 1037.71L1710.73 1035.26C1706.6 1034.09 1702.63 1032.38 1698.94 1030.18L1674.3 1015.45C1665.45 1010.16 1657.02 1004.19 1649.08 997.598L1625.5 978L1554.5 924L1493.5 879.5L1425.36 834.072C1424.79 833.691 1424.25 833.266 1423.74 832.801L1410.58 820.676C1406.46 816.879 1409.15 810 1414.75 810C1415.58 810 1416.39 810.165 1417.15 810.485L1519 853.5L1638 908Z" fill="url(#paint9_radial)"/>
<path d="M1638 908L1721.5 948.5L1734.1 955.1C1739.56 957.961 1743.98 962.468 1746.74 967.982C1747.91 970.317 1748.76 972.797 1749.27 975.357L1751.88 988.383C1752.62 992.119 1753 995.919 1753 999.728V1005.62C1753 1011.77 1751.4 1017.81 1748.37 1023.16L1746.41 1026.61C1743.87 1031.08 1739.95 1034.61 1735.24 1036.65C1730.23 1038.82 1724.63 1039.19 1719.39 1037.71L1710.73 1035.26C1706.6 1034.09 1702.63 1032.38 1698.94 1030.18L1674.3 1015.45C1665.45 1010.16 1657.02 1004.19 1649.08 997.598L1625.5 978L1554.5 924L1493.5 879.5L1425.36 834.072C1424.79 833.691 1424.25 833.266 1423.74 832.801L1410.58 820.676C1406.46 816.879 1409.15 810 1414.75 810C1415.58 810 1416.39 810.165 1417.15 810.485L1519 853.5L1638 908Z" fill="url(#paint10_radial)"/>
<path d="M1431.26 843.137L1417.49 834.443C1416.53 833.833 1415.38 833.573 1414.25 833.706C1410.9 834.1 1408.9 837.626 1410.27 840.7L1414.48 850.105C1415.47 852.321 1417.08 854.202 1419.12 855.521L1422.01 857.389C1423.66 858.459 1425.18 859.727 1426.53 861.166L1461 898L1488 931L1567 1033.5L1633.5 1124L1668 1163L1688.95 1182.04C1693.29 1185.99 1698.19 1189.29 1703.48 1191.84L1709.03 1194.51C1717.13 1198.4 1726.26 1199.59 1735.09 1197.91L1739.75 1197.02C1748.2 1195.41 1755.61 1190.37 1760.2 1183.1C1763.34 1178.13 1765 1172.38 1765 1166.51V1163.4C1765 1155.94 1763 1148.61 1759.21 1142.18L1753.75 1132.9C1750.26 1126.99 1746.05 1121.55 1741.19 1116.69L1714 1089.5L1629.5 1015L1543 939.5L1472.5 879.5L1438.28 848.473C1436.1 846.495 1433.75 844.709 1431.26 843.137Z" fill="url(#paint11_radial)"/>
<path d="M1431.26 843.137L1417.49 834.443C1416.53 833.833 1415.38 833.573 1414.25 833.706C1410.9 834.1 1408.9 837.626 1410.27 840.7L1414.48 850.105C1415.47 852.321 1417.08 854.202 1419.12 855.521L1422.01 857.389C1423.66 858.459 1425.18 859.727 1426.53 861.166L1461 898L1488 931L1567 1033.5L1633.5 1124L1668 1163L1688.95 1182.04C1693.29 1185.99 1698.19 1189.29 1703.48 1191.84L1709.03 1194.51C1717.13 1198.4 1726.26 1199.59 1735.09 1197.91L1739.75 1197.02C1748.2 1195.41 1755.61 1190.37 1760.2 1183.1C1763.34 1178.13 1765 1172.38 1765 1166.51V1163.4C1765 1155.94 1763 1148.61 1759.21 1142.18L1753.75 1132.9C1750.26 1126.99 1746.05 1121.55 1741.19 1116.69L1714 1089.5L1629.5 1015L1543 939.5L1472.5 879.5L1438.28 848.473C1436.1 846.495 1433.75 844.709 1431.26 843.137Z" fill="url(#paint12_linear)"/>
<path d="M1431.26 843.137L1417.49 834.443C1416.53 833.833 1415.38 833.573 1414.25 833.706C1410.9 834.1 1408.9 837.626 1410.27 840.7L1414.48 850.105C1415.47 852.321 1417.08 854.202 1419.12 855.521L1422.01 857.389C1423.66 858.459 1425.18 859.727 1426.53 861.166L1461 898L1488 931L1567 1033.5L1633.5 1124L1668 1163L1688.95 1182.04C1693.29 1185.99 1698.19 1189.29 1703.48 1191.84L1709.03 1194.51C1717.13 1198.4 1726.26 1199.59 1735.09 1197.91L1739.75 1197.02C1748.2 1195.41 1755.61 1190.37 1760.2 1183.1C1763.34 1178.13 1765 1172.38 1765 1166.51V1163.4C1765 1155.94 1763 1148.61 1759.21 1142.18L1753.75 1132.9C1750.26 1126.99 1746.05 1121.55 1741.19 1116.69L1714 1089.5L1629.5 1015L1543 939.5L1472.5 879.5L1438.28 848.473C1436.1 846.495 1433.75 844.709 1431.26 843.137Z" fill="url(#paint13_radial)"/>
<path d="M1431.26 843.137L1417.49 834.443C1416.53 833.833 1415.38 833.573 1414.25 833.706C1410.9 834.1 1408.9 837.626 1410.27 840.7L1414.48 850.105C1415.47 852.321 1417.08 854.202 1419.12 855.521L1422.01 857.389C1423.66 858.459 1425.18 859.727 1426.53 861.166L1461 898L1488 931L1567 1033.5L1633.5 1124L1668 1163L1688.95 1182.04C1693.29 1185.99 1698.19 1189.29 1703.48 1191.84L1709.03 1194.51C1717.13 1198.4 1726.26 1199.59 1735.09 1197.91L1739.75 1197.02C1748.2 1195.41 1755.61 1190.37 1760.2 1183.1C1763.34 1178.13 1765 1172.38 1765 1166.51V1163.4C1765 1155.94 1763 1148.61 1759.21 1142.18L1753.75 1132.9C1750.26 1126.99 1746.05 1121.55 1741.19 1116.69L1714 1089.5L1629.5 1015L1543 939.5L1472.5 879.5L1438.28 848.473C1436.1 846.495 1433.75 844.709 1431.26 843.137Z" fill="url(#paint14_radial)"/>
<path d="M1407.5 884.5L1396.07 864.844C1395.36 863.625 1394.88 862.288 1394.64 860.897L1393.25 852.778C1392.62 849.125 1395.66 845.885 1399.34 846.273C1400.73 846.419 1402.01 847.079 1402.94 848.122L1437 886.5L1579 1074L1613 1119L1694 1238L1714.5 1273.5L1722.23 1289.7C1724.07 1293.56 1725.55 1297.58 1726.66 1301.71L1727.32 1304.18C1728.43 1308.38 1729 1312.7 1729 1317.04C1729 1321 1728.53 1324.94 1727.6 1328.79L1726.6 1332.9C1725.53 1337.29 1724.11 1341.59 1722.35 1345.75L1720.68 1349.67C1718.9 1353.87 1716.57 1357.81 1713.74 1361.39C1711.59 1364.12 1709.16 1366.63 1706.49 1368.87L1704.84 1370.25C1700.3 1374.07 1695.28 1377.28 1689.91 1379.81L1686.44 1381.44C1682.83 1383.14 1679 1384.31 1675.06 1384.93C1668.45 1385.96 1661.69 1385.4 1655.34 1383.28L1653.97 1382.82C1650.34 1381.61 1646.86 1379.97 1643.62 1377.93L1640.04 1375.67C1636.69 1373.56 1633.48 1371.21 1630.46 1368.64L1628.65 1367.09C1623.89 1363.04 1619.47 1358.61 1615.42 1353.84L1614.28 1352.49C1609.77 1347.17 1605.66 1341.51 1602 1335.57L1595.5 1325L1575.5 1280.5L1553.5 1226.5L1538.5 1187.5L1514.5 1129.5L1491.5 1074L1468 1017L1446.5 965.5L1423.5 913.5L1407.5 884.5Z" fill="url(#paint15_radial)"/>
<path d="M1407.5 884.5L1396.07 864.844C1395.36 863.625 1394.88 862.288 1394.64 860.897L1393.25 852.778C1392.62 849.125 1395.66 845.885 1399.34 846.273C1400.73 846.419 1402.01 847.079 1402.94 848.122L1437 886.5L1579 1074L1613 1119L1694 1238L1714.5 1273.5L1722.23 1289.7C1724.07 1293.56 1725.55 1297.58 1726.66 1301.71L1727.32 1304.18C1728.43 1308.38 1729 1312.7 1729 1317.04C1729 1321 1728.53 1324.94 1727.6 1328.79L1726.6 1332.9C1725.53 1337.29 1724.11 1341.59 1722.35 1345.75L1720.68 1349.67C1718.9 1353.87 1716.57 1357.81 1713.74 1361.39C1711.59 1364.12 1709.16 1366.63 1706.49 1368.87L1704.84 1370.25C1700.3 1374.07 1695.28 1377.28 1689.91 1379.81L1686.44 1381.44C1682.83 1383.14 1679 1384.31 1675.06 1384.93C1668.45 1385.96 1661.69 1385.4 1655.34 1383.28L1653.97 1382.82C1650.34 1381.61 1646.86 1379.97 1643.62 1377.93L1640.04 1375.67C1636.69 1373.56 1633.48 1371.21 1630.46 1368.64L1628.65 1367.09C1623.89 1363.04 1619.47 1358.61 1615.42 1353.84L1614.28 1352.49C1609.77 1347.17 1605.66 1341.51 1602 1335.57L1595.5 1325L1575.5 1280.5L1553.5 1226.5L1538.5 1187.5L1514.5 1129.5L1491.5 1074L1468 1017L1446.5 965.5L1423.5 913.5L1407.5 884.5Z" fill="url(#paint16_linear)"/>
<path d="M1407.5 884.5L1396.07 864.844C1395.36 863.625 1394.88 862.288 1394.64 860.897L1393.25 852.778C1392.62 849.125 1395.66 845.885 1399.34 846.273C1400.73 846.419 1402.01 847.079 1402.94 848.122L1437 886.5L1579 1074L1613 1119L1694 1238L1714.5 1273.5L1722.23 1289.7C1724.07 1293.56 1725.55 1297.58 1726.66 1301.71L1727.32 1304.18C1728.43 1308.38 1729 1312.7 1729 1317.04C1729 1321 1728.53 1324.94 1727.6 1328.79L1726.6 1332.9C1725.53 1337.29 1724.11 1341.59 1722.35 1345.75L1720.68 1349.67C1718.9 1353.87 1716.57 1357.81 1713.74 1361.39C1711.59 1364.12 1709.16 1366.63 1706.49 1368.87L1704.84 1370.25C1700.3 1374.07 1695.28 1377.28 1689.91 1379.81L1686.44 1381.44C1682.83 1383.14 1679 1384.31 1675.06 1384.93C1668.45 1385.96 1661.69 1385.4 1655.34 1383.28L1653.97 1382.82C1650.34 1381.61 1646.86 1379.97 1643.62 1377.93L1640.04 1375.67C1636.69 1373.56 1633.48 1371.21 1630.46 1368.64L1628.65 1367.09C1623.89 1363.04 1619.47 1358.61 1615.42 1353.84L1614.28 1352.49C1609.77 1347.17 1605.66 1341.51 1602 1335.57L1595.5 1325L1575.5 1280.5L1553.5 1226.5L1538.5 1187.5L1514.5 1129.5L1491.5 1074L1468 1017L1446.5 965.5L1423.5 913.5L1407.5 884.5Z" fill="url(#paint17_radial)"/>
<path d="M1407.5 884.5L1396.07 864.844C1395.36 863.625 1394.88 862.288 1394.64 860.897L1393.25 852.778C1392.62 849.125 1395.66 845.885 1399.34 846.273C1400.73 846.419 1402.01 847.079 1402.94 848.122L1437 886.5L1579 1074L1613 1119L1694 1238L1714.5 1273.5L1722.23 1289.7C1724.07 1293.56 1725.55 1297.58 1726.66 1301.71L1727.32 1304.18C1728.43 1308.38 1729 1312.7 1729 1317.04C1729 1321 1728.53 1324.94 1727.6 1328.79L1726.6 1332.9C1725.53 1337.29 1724.11 1341.59 1722.35 1345.75L1720.68 1349.67C1718.9 1353.87 1716.57 1357.81 1713.74 1361.39C1711.59 1364.12 1709.16 1366.63 1706.49 1368.87L1704.84 1370.25C1700.3 1374.07 1695.28 1377.28 1689.91 1379.81L1686.44 1381.44C1682.83 1383.14 1679 1384.31 1675.06 1384.93C1668.45 1385.96 1661.69 1385.4 1655.34 1383.28L1653.97 1382.82C1650.34 1381.61 1646.86 1379.97 1643.62 1377.93L1640.04 1375.67C1636.69 1373.56 1633.48 1371.21 1630.46 1368.64L1628.65 1367.09C1623.89 1363.04 1619.47 1358.61 1615.42 1353.84L1614.28 1352.49C1609.77 1347.17 1605.66 1341.51 1602 1335.57L1595.5 1325L1575.5 1280.5L1553.5 1226.5L1538.5 1187.5L1514.5 1129.5L1491.5 1074L1468 1017L1446.5 965.5L1423.5 913.5L1407.5 884.5Z" fill="url(#paint18_radial)"/>
<path d="M1399 882.5L1393.1 866.903C1392.4 865.064 1390.92 863.629 1389.07 862.988C1384.09 861.274 1379.2 865.763 1380.49 870.863L1393.5 922.5L1407.5 1002L1424.5 1099.5L1429 1135L1433 1187.5L1440.5 1246L1445 1279L1447.5 1294.5L1450.95 1310.01C1451.98 1314.66 1453.46 1319.2 1455.37 1323.56L1455.94 1324.85C1458.3 1330.26 1461.41 1335.31 1465.16 1339.86C1467.72 1342.94 1470.55 1345.79 1473.64 1348.34L1479.2 1352.94C1482.06 1355.31 1485.19 1357.31 1488.53 1358.93C1494.76 1361.94 1501.6 1363.5 1508.52 1363.5H1512.65C1515.21 1363.5 1517.75 1363.19 1520.23 1362.57L1521.4 1362.28C1524.76 1361.43 1527.92 1359.91 1530.68 1357.81C1533.53 1355.63 1535.88 1352.87 1537.59 1349.72L1538.65 1347.76C1540.54 1344.28 1541.83 1340.5 1542.48 1336.6L1542.59 1335.94C1543.19 1332.33 1543.29 1328.65 1542.89 1325.02L1541.5 1312.5L1535 1286L1526.5 1258L1514.5 1220.5L1506.5 1195.5L1488 1146L1471.5 1099.5L1455 1050.5L1443 1012.5L1428.5 966.5L1420 940L1409 909L1399 882.5Z" fill="url(#paint19_radial)"/>
<path d="M1399 882.5L1393.1 866.903C1392.4 865.064 1390.92 863.629 1389.07 862.988C1384.09 861.274 1379.2 865.763 1380.49 870.863L1393.5 922.5L1407.5 1002L1424.5 1099.5L1429 1135L1433 1187.5L1440.5 1246L1445 1279L1447.5 1294.5L1450.95 1310.01C1451.98 1314.66 1453.46 1319.2 1455.37 1323.56L1455.94 1324.85C1458.3 1330.26 1461.41 1335.31 1465.16 1339.86C1467.72 1342.94 1470.55 1345.79 1473.64 1348.34L1479.2 1352.94C1482.06 1355.31 1485.19 1357.31 1488.53 1358.93C1494.76 1361.94 1501.6 1363.5 1508.52 1363.5H1512.65C1515.21 1363.5 1517.75 1363.19 1520.23 1362.57L1521.4 1362.28C1524.76 1361.43 1527.92 1359.91 1530.68 1357.81C1533.53 1355.63 1535.88 1352.87 1537.59 1349.72L1538.65 1347.76C1540.54 1344.28 1541.83 1340.5 1542.48 1336.6L1542.59 1335.94C1543.19 1332.33 1543.29 1328.65 1542.89 1325.02L1541.5 1312.5L1535 1286L1526.5 1258L1514.5 1220.5L1506.5 1195.5L1488 1146L1471.5 1099.5L1455 1050.5L1443 1012.5L1428.5 966.5L1420 940L1409 909L1399 882.5Z" fill="url(#paint20_linear)"/>
<path d="M1399 882.5L1393.1 866.903C1392.4 865.064 1390.92 863.629 1389.07 862.988C1384.09 861.274 1379.2 865.763 1380.49 870.863L1393.5 922.5L1407.5 1002L1424.5 1099.5L1429 1135L1433 1187.5L1440.5 1246L1445 1279L1447.5 1294.5L1450.95 1310.01C1451.98 1314.66 1453.46 1319.2 1455.37 1323.56L1455.94 1324.85C1458.3 1330.26 1461.41 1335.31 1465.16 1339.86C1467.72 1342.94 1470.55 1345.79 1473.64 1348.34L1479.2 1352.94C1482.06 1355.31 1485.19 1357.31 1488.53 1358.93C1494.76 1361.94 1501.6 1363.5 1508.52 1363.5H1512.65C1515.21 1363.5 1517.75 1363.19 1520.23 1362.57L1521.4 1362.28C1524.76 1361.43 1527.92 1359.91 1530.68 1357.81C1533.53 1355.63 1535.88 1352.87 1537.59 1349.72L1538.65 1347.76C1540.54 1344.28 1541.83 1340.5 1542.48 1336.6L1542.59 1335.94C1543.19 1332.33 1543.29 1328.65 1542.89 1325.02L1541.5 1312.5L1535 1286L1526.5 1258L1514.5 1220.5L1506.5 1195.5L1488 1146L1471.5 1099.5L1455 1050.5L1443 1012.5L1428.5 966.5L1420 940L1409 909L1399 882.5Z" fill="url(#paint21_radial)"/>
<path d="M1399 882.5L1393.1 866.903C1392.4 865.064 1390.92 863.629 1389.07 862.988C1384.09 861.274 1379.2 865.763 1380.49 870.863L1393.5 922.5L1407.5 1002L1424.5 1099.5L1429 1135L1433 1187.5L1440.5 1246L1445 1279L1447.5 1294.5L1450.95 1310.01C1451.98 1314.66 1453.46 1319.2 1455.37 1323.56L1455.94 1324.85C1458.3 1330.26 1461.41 1335.31 1465.16 1339.86C1467.72 1342.94 1470.55 1345.79 1473.64 1348.34L1479.2 1352.94C1482.06 1355.31 1485.19 1357.31 1488.53 1358.93C1494.76 1361.94 1501.6 1363.5 1508.52 1363.5H1512.65C1515.21 1363.5 1517.75 1363.19 1520.23 1362.57L1521.4 1362.28C1524.76 1361.43 1527.92 1359.91 1530.68 1357.81C1533.53 1355.63 1535.88 1352.87 1537.59 1349.72L1538.65 1347.76C1540.54 1344.28 1541.83 1340.5 1542.48 1336.6L1542.59 1335.94C1543.19 1332.33 1543.29 1328.65 1542.89 1325.02L1541.5 1312.5L1535 1286L1526.5 1258L1514.5 1220.5L1506.5 1195.5L1488 1146L1471.5 1099.5L1455 1050.5L1443 1012.5L1428.5 966.5L1420 940L1409 909L1399 882.5Z" fill="url(#paint22_radial)"/>
<path d="M1361 906L1362.46 867.096C1362.49 866.368 1362.6 865.646 1362.8 864.944L1364.43 859.107C1365.23 856.26 1368.49 854.922 1371.06 856.389C1372.28 857.089 1373.11 858.32 1373.3 859.719L1380 909L1385.5 955.5L1392.5 1022.5L1396 1066.5L1401 1115.5V1169.5L1398.83 1194.62C1397.95 1204.8 1395.3 1214.74 1391 1224L1385.73 1233.84C1384.27 1236.57 1382.14 1238.88 1379.54 1240.56C1376.58 1242.48 1373.12 1243.5 1369.59 1243.5H1369C1365.72 1243.5 1362.48 1242.7 1359.57 1241.18L1358.8 1240.78C1355.32 1238.95 1352.35 1236.3 1350.14 1233.05L1347.37 1228.97C1345.13 1225.67 1343.36 1222.08 1342.1 1218.31L1340.4 1213.2C1338.14 1206.43 1336.77 1199.39 1336.33 1192.27L1335.5 1179L1337 1146L1342 1106L1346 1083.5L1352.5 1026.5L1357.5 960L1361 906Z" fill="url(#paint23_radial)"/>
<path d="M1361 906L1362.46 867.096C1362.49 866.368 1362.6 865.646 1362.8 864.944L1364.43 859.107C1365.23 856.26 1368.49 854.922 1371.06 856.389C1372.28 857.089 1373.11 858.32 1373.3 859.719L1380 909L1385.5 955.5L1392.5 1022.5L1396 1066.5L1401 1115.5V1169.5L1398.83 1194.62C1397.95 1204.8 1395.3 1214.74 1391 1224L1385.73 1233.84C1384.27 1236.57 1382.14 1238.88 1379.54 1240.56C1376.58 1242.48 1373.12 1243.5 1369.59 1243.5H1369C1365.72 1243.5 1362.48 1242.7 1359.57 1241.18L1358.8 1240.78C1355.32 1238.95 1352.35 1236.3 1350.14 1233.05L1347.37 1228.97C1345.13 1225.67 1343.36 1222.08 1342.1 1218.31L1340.4 1213.2C1338.14 1206.43 1336.77 1199.39 1336.33 1192.27L1335.5 1179L1337 1146L1342 1106L1346 1083.5L1352.5 1026.5L1357.5 960L1361 906Z" fill="url(#paint24_linear)"/>
<path d="M1361 906L1362.46 867.096C1362.49 866.368 1362.6 865.646 1362.8 864.944L1364.43 859.107C1365.23 856.26 1368.49 854.922 1371.06 856.389C1372.28 857.089 1373.11 858.32 1373.3 859.719L1380 909L1385.5 955.5L1392.5 1022.5L1396 1066.5L1401 1115.5V1169.5L1398.83 1194.62C1397.95 1204.8 1395.3 1214.74 1391 1224L1385.73 1233.84C1384.27 1236.57 1382.14 1238.88 1379.54 1240.56C1376.58 1242.48 1373.12 1243.5 1369.59 1243.5H1369C1365.72 1243.5 1362.48 1242.7 1359.57 1241.18L1358.8 1240.78C1355.32 1238.95 1352.35 1236.3 1350.14 1233.05L1347.37 1228.97C1345.13 1225.67 1343.36 1222.08 1342.1 1218.31L1340.4 1213.2C1338.14 1206.43 1336.77 1199.39 1336.33 1192.27L1335.5 1179L1337 1146L1342 1106L1346 1083.5L1352.5 1026.5L1357.5 960L1361 906Z" fill="url(#paint25_radial)"/>
<path d="M1361 906L1362.46 867.096C1362.49 866.368 1362.6 865.646 1362.8 864.944L1364.43 859.107C1365.23 856.26 1368.49 854.922 1371.06 856.389C1372.28 857.089 1373.11 858.32 1373.3 859.719L1380 909L1385.5 955.5L1392.5 1022.5L1396 1066.5L1401 1115.5V1169.5L1398.83 1194.62C1397.95 1204.8 1395.3 1214.74 1391 1224L1385.73 1233.84C1384.27 1236.57 1382.14 1238.88 1379.54 1240.56C1376.58 1242.48 1373.12 1243.5 1369.59 1243.5H1369C1365.72 1243.5 1362.48 1242.7 1359.57 1241.18L1358.8 1240.78C1355.32 1238.95 1352.35 1236.3 1350.14 1233.05L1347.37 1228.97C1345.13 1225.67 1343.36 1222.08 1342.1 1218.31L1340.4 1213.2C1338.14 1206.43 1336.77 1199.39 1336.33 1192.27L1335.5 1179L1337 1146L1342 1106L1346 1083.5L1352.5 1026.5L1357.5 960L1361 906Z" fill="url(#paint26_radial)"/>
<path d="M1638 908L1721.5 948.5L1734.1 955.1C1739.56 957.961 1743.98 962.468 1746.74 967.982C1747.91 970.317 1748.76 972.797 1749.27 975.357L1751.88 988.383C1752.62 992.119 1753 995.919 1753 999.728V1005.62C1753 1011.77 1751.4 1017.81 1748.37 1023.16L1746.41 1026.61C1743.87 1031.08 1739.95 1034.61 1735.24 1036.65C1730.23 1038.82 1724.63 1039.19 1719.39 1037.71L1710.73 1035.26C1706.6 1034.09 1702.63 1032.38 1698.94 1030.18L1674.3 1015.45C1665.45 1010.16 1657.02 1004.19 1649.08 997.598L1625.5 978L1554.5 924L1493.5 879.5L1425.36 834.072C1424.79 833.691 1424.25 833.266 1423.74 832.801L1410.58 820.676C1406.46 816.879 1409.15 810 1414.75 810C1415.58 810 1416.39 810.165 1417.15 810.485L1519 853.5L1638 908Z" stroke="black" stroke-width="0.5"/>
<path d="M1431.26 843.137L1417.49 834.443C1416.53 833.833 1415.38 833.573 1414.25 833.706C1410.9 834.1 1408.9 837.626 1410.27 840.7L1414.48 850.105C1415.47 852.321 1417.08 854.202 1419.12 855.521L1422.01 857.389C1423.66 858.459 1425.18 859.727 1426.53 861.166L1461 898L1488 931L1567 1033.5L1633.5 1124L1668 1163L1688.95 1182.04C1693.29 1185.99 1698.19 1189.29 1703.48 1191.84L1709.03 1194.51C1717.13 1198.4 1726.26 1199.59 1735.09 1197.91L1739.75 1197.02C1748.2 1195.41 1755.61 1190.37 1760.2 1183.1C1763.34 1178.13 1765 1172.38 1765 1166.51V1163.4C1765 1155.94 1763 1148.61 1759.21 1142.18L1753.75 1132.9C1750.26 1126.99 1746.05 1121.55 1741.19 1116.69L1714 1089.5L1629.5 1015L1543 939.5L1472.5 879.5L1438.28 848.473C1436.1 846.495 1433.75 844.709 1431.26 843.137Z" stroke="black" stroke-width="0.5"/>
<path d="M1407.5 884.5L1396.07 864.844C1395.36 863.625 1394.88 862.288 1394.64 860.897L1393.25 852.778C1392.62 849.125 1395.66 845.885 1399.34 846.273C1400.73 846.419 1402.01 847.079 1402.94 848.122L1437 886.5L1579 1074L1613 1119L1694 1238L1714.5 1273.5L1722.23 1289.7C1724.07 1293.56 1725.55 1297.58 1726.66 1301.71L1727.32 1304.18C1728.43 1308.38 1729 1312.7 1729 1317.04C1729 1321 1728.53 1324.94 1727.6 1328.79L1726.6 1332.9C1725.53 1337.29 1724.11 1341.59 1722.35 1345.75L1720.68 1349.67C1718.9 1353.87 1716.57 1357.81 1713.74 1361.39C1711.59 1364.12 1709.16 1366.63 1706.49 1368.87L1704.84 1370.25C1700.3 1374.07 1695.28 1377.28 1689.91 1379.81L1686.44 1381.44C1682.83 1383.14 1679 1384.31 1675.06 1384.93C1668.45 1385.96 1661.69 1385.4 1655.34 1383.28L1653.97 1382.82C1650.34 1381.61 1646.86 1379.97 1643.62 1377.93L1640.04 1375.67C1636.69 1373.56 1633.48 1371.21 1630.46 1368.64L1628.65 1367.09C1623.89 1363.04 1619.47 1358.61 1615.42 1353.84L1614.28 1352.49C1609.77 1347.17 1605.66 1341.51 1602 1335.57L1595.5 1325L1575.5 1280.5L1553.5 1226.5L1538.5 1187.5L1514.5 1129.5L1491.5 1074L1468 1017L1446.5 965.5L1423.5 913.5L1407.5 884.5Z" stroke="black" stroke-width="0.5"/>
<path d="M1399 882.5L1393.1 866.903C1392.4 865.064 1390.92 863.629 1389.07 862.988C1384.09 861.274 1379.2 865.763 1380.49 870.863L1393.5 922.5L1407.5 1002L1424.5 1099.5L1429 1135L1433 1187.5L1440.5 1246L1445 1279L1447.5 1294.5L1450.95 1310.01C1451.98 1314.66 1453.46 1319.2 1455.37 1323.56L1455.94 1324.85C1458.3 1330.26 1461.41 1335.31 1465.16 1339.86C1467.72 1342.94 1470.55 1345.79 1473.64 1348.34L1479.2 1352.94C1482.06 1355.31 1485.19 1357.31 1488.53 1358.93C1494.76 1361.94 1501.6 1363.5 1508.52 1363.5H1512.65C1515.21 1363.5 1517.75 1363.19 1520.23 1362.57L1521.4 1362.28C1524.76 1361.43 1527.92 1359.91 1530.68 1357.81C1533.53 1355.63 1535.88 1352.87 1537.59 1349.72L1538.65 1347.76C1540.54 1344.28 1541.83 1340.5 1542.48 1336.6L1542.59 1335.94C1543.19 1332.33 1543.29 1328.65 1542.89 1325.02L1541.5 1312.5L1535 1286L1526.5 1258L1514.5 1220.5L1506.5 1195.5L1488 1146L1471.5 1099.5L1455 1050.5L1443 1012.5L1428.5 966.5L1420 940L1409 909L1399 882.5Z" stroke="black" stroke-width="0.5"/>
<path d="M1361 906L1362.46 867.096C1362.49 866.368 1362.6 865.646 1362.8 864.944L1364.43 859.107C1365.23 856.26 1368.49 854.922 1371.06 856.389C1372.28 857.089 1373.11 858.32 1373.3 859.719L1380 909L1385.5 955.5L1392.5 1022.5L1396 1066.5L1401 1115.5V1169.5L1398.83 1194.62C1397.95 1204.8 1395.3 1214.74 1391 1224L1385.73 1233.84C1384.27 1236.57 1382.14 1238.88 1379.54 1240.56C1376.58 1242.48 1373.12 1243.5 1369.59 1243.5H1369C1365.72 1243.5 1362.48 1242.7 1359.57 1241.18L1358.8 1240.78C1355.32 1238.95 1352.35 1236.3 1350.14 1233.05L1347.37 1228.97C1345.13 1225.67 1343.36 1222.08 1342.1 1218.31L1340.4 1213.2C1338.14 1206.43 1336.77 1199.39 1336.33 1192.27L1335.5 1179L1337 1146L1342 1106L1346 1083.5L1352.5 1026.5L1357.5 960L1361 906Z" stroke="black" stroke-width="0.5"/>
</g>
<circle id="Ellipse 1" cx="890" cy="529" r="30" fill="url(#paint27_radial)" stroke="black" stroke-width="0.3"/>
<ellipse id="Ellipse 2" cx="890.5" cy="528" rx="21.5" ry="21" fill="url(#paint28_radial)"/>
<path id="Vector 2" d="M0.5 1464.5C3976.5 1426.9 5562.83 1809.5 5859 2005.5" stroke="url(#paint29_linear)" stroke-width="15"/>
<path id="Vector 3" d="M807 593C835.425 522.995 860.353 455.904 925.5 506.5" stroke="url(#paint30_linear)" stroke-width="2"/>
<path id="TAKUMI SHOP" d="M2266.97 1098H2242.22C2237.08 1098 2234.52 1095.43 2234.52 1090.3V784.5C2234.52 781.2 2232.68 779.55 2229.02 779.55H2154.22C2148.72 779.55 2145.97 776.983 2145.97 771.85V752.05C2145.97 746.917 2148.72 744.35 2154.22 744.35H2354.97C2360.47 744.35 2363.22 746.917 2363.22 752.05V771.85C2363.22 776.983 2360.47 779.55 2354.97 779.55H2280.17C2276.5 779.55 2274.67 781.2 2274.67 784.5V1090.3C2274.67 1095.43 2272.1 1098 2266.97 1098ZM2419.73 1098H2392.23C2387.47 1098 2385.82 1095.43 2387.28 1090.3L2490.13 752.05C2491.6 746.917 2495.08 744.35 2500.58 744.35H2540.18C2545.68 744.35 2549.17 746.917 2550.63 752.05L2653.48 1090.3C2654.95 1095.43 2653.3 1098 2648.53 1098H2620.48C2616.45 1098 2613.88 1095.43 2612.78 1090.3L2586.93 1010H2453.83L2427.98 1090.3C2426.52 1095.43 2423.77 1098 2419.73 1098ZM2519.28 785.6L2462.63 975.9H2578.13L2521.48 785.6H2519.28ZM2744.81 1098H2720.06C2714.92 1098 2712.36 1095.43 2712.36 1090.3V752.05C2712.36 746.917 2714.92 744.35 2720.06 744.35H2744.81C2749.94 744.35 2752.51 746.917 2752.51 752.05V941.8H2754.16C2756.72 934.1 2760.76 926.583 2766.26 919.25L2889.46 752.05C2892.76 746.917 2897.52 744.35 2903.76 744.35H2933.46C2939.69 744.35 2940.61 747.1 2936.21 752.6L2827.31 900L2951.61 1089.2C2955.64 1095.07 2953.99 1098 2946.66 1098H2924.11C2916.41 1098 2911.09 1095.43 2908.16 1090.3L2802.56 929.15L2752.51 989.1V1090.3C2752.51 1095.43 2749.94 1098 2744.81 1098ZM3196.4 744.35H3221.15C3226.29 744.35 3228.85 746.733 3228.85 751.5V1016.6C3228.85 1042.27 3221.7 1062.25 3207.4 1076.55C3193.1 1090.85 3173.3 1098 3148 1098H3086.95C3061.65 1098 3041.67 1090.85 3027 1076.55C3012.7 1062.25 3005.55 1042.27 3005.55 1016.6V752.05C3005.55 746.917 3008.12 744.35 3013.25 744.35H3038C3043.14 744.35 3045.7 746.917 3045.7 752.05V1014.95C3045.7 1046.85 3060.92 1062.8 3091.35 1062.8H3143.05C3173.85 1062.8 3189.25 1046.85 3189.25 1014.95V752.05C3189.25 746.917 3191.64 744.35 3196.4 744.35ZM3561.44 744.35H3605.99C3611.13 744.35 3613.69 746.917 3613.69 752.05V1090.3C3613.69 1095.43 3611.13 1098 3605.99 1098H3581.79C3576.66 1098 3574.09 1095.43 3574.09 1090.3V798.25H3571.89L3486.64 1013.85C3484.44 1018.62 3481.14 1021 3476.74 1021H3450.34C3445.58 1021 3442.46 1018.62 3440.99 1013.85L3354.09 797.7H3351.89V1090.3C3351.89 1095.43 3349.51 1098 3344.74 1098H3320.54C3315.41 1098 3312.84 1095.43 3312.84 1090.3V752.05C3312.84 746.917 3315.41 744.35 3320.54 744.35H3365.09C3368.39 744.35 3370.59 745.817 3371.69 748.75L3461.89 976.45H3464.64L3554.84 748.75C3555.58 745.817 3557.78 744.35 3561.44 744.35ZM3743.54 752.05V1090.3C3743.54 1095.43 3740.97 1098 3735.84 1098H3711.09C3705.95 1098 3703.39 1095.43 3703.39 1090.3V752.05C3703.39 746.917 3705.95 744.35 3711.09 744.35H3735.84C3740.97 744.35 3743.54 746.917 3743.54 752.05ZM3969.1 1016.6V999C3969.1 993.867 3971.67 991.3 3976.8 991.3H4001.55C4006.69 991.3 4009.25 993.867 4009.25 999V1013.3C4009.25 1046.3 4025.57 1062.8 4058.2 1062.8H4106.6C4139.24 1062.8 4155.55 1045.93 4155.55 1012.2V993.5C4155.55 967.1 4133.74 949.867 4090.1 941.8C4071.77 938.5 4053.44 934.65 4035.1 930.25C4016.77 925.85 4001.19 917.417 3988.35 904.95C3975.52 892.117 3969.1 874.7 3969.1 852.7V825.75C3969.1 800.45 3976.25 780.65 3990.55 766.35C4005.22 751.683 4025.2 744.35 4050.5 744.35H4111.55C4136.49 744.35 4156.29 751.683 4170.95 766.35C4185.62 780.65 4192.95 800.45 4192.95 825.75V839.5C4192.95 845 4190.57 847.75 4185.8 847.75H4160.5C4155.74 847.75 4153.35 845 4153.35 839.5V829.6C4153.35 796.233 4137.04 779.55 4104.4 779.55H4057.65C4025.02 779.55 4008.7 796.967 4008.7 831.8V853.8C4008.7 872.5 4020.99 885.333 4045.55 892.3C4056.55 895.233 4068.65 897.983 4081.85 900.55C4095.05 902.75 4108.25 905.867 4121.45 909.9C4135.02 913.567 4147.3 918.333 4158.3 924.2C4169.3 929.7 4178.1 938.317 4184.7 950.05C4191.67 961.417 4195.15 975.35 4195.15 991.85V1016.6C4195.15 1041.9 4187.82 1061.88 4173.15 1076.55C4158.49 1090.85 4138.69 1098 4113.75 1098H4050.5C4025.57 1098 4005.77 1090.85 3991.1 1076.55C3976.44 1061.88 3969.1 1041.9 3969.1 1016.6ZM4310.48 1098H4285.73C4280.6 1098 4278.03 1095.43 4278.03 1090.3V752.05C4278.03 746.917 4280.6 744.35 4285.73 744.35H4310.48C4315.61 744.35 4318.18 746.917 4318.18 752.05V896.7C4318.18 900 4320.01 901.65 4323.68 901.65H4460.08C4463.75 901.65 4465.58 900 4465.58 896.7V752.05C4465.58 746.917 4468.15 744.35 4473.28 744.35H4498.03C4503.16 744.35 4505.73 746.917 4505.73 752.05V1090.3C4505.73 1095.43 4503.16 1098 4498.03 1098H4473.28C4468.15 1098 4465.58 1095.43 4465.58 1090.3V941.8C4465.58 938.5 4463.75 936.85 4460.08 936.85H4323.68C4320.01 936.85 4318.18 938.5 4318.18 941.8V1090.3C4318.18 1095.43 4315.61 1098 4310.48 1098ZM4673.08 1062.8H4729.18C4759.98 1062.8 4775.38 1046.85 4775.38 1014.95V827.4C4775.38 795.5 4759.98 779.55 4729.18 779.55H4673.08C4642.64 779.55 4627.43 795.5 4627.43 827.4V1014.95C4627.43 1046.85 4642.64 1062.8 4673.08 1062.8ZM4734.13 1098H4668.68C4643.38 1098 4623.39 1090.85 4608.73 1076.55C4594.43 1062.25 4587.28 1042.27 4587.28 1016.6V825.75C4587.28 800.083 4594.43 780.1 4608.73 765.8C4623.39 751.5 4643.38 744.35 4668.68 744.35H4734.13C4759.43 744.35 4779.23 751.683 4793.53 766.35C4808.19 780.65 4815.53 800.45 4815.53 825.75V1016.6C4815.53 1041.9 4808.19 1061.88 4793.53 1076.55C4779.23 1090.85 4759.43 1098 4734.13 1098ZM4929.23 1098H4904.48C4899.35 1098 4896.78 1095.43 4896.78 1090.3V752.05C4896.78 746.917 4899.35 744.35 4904.48 744.35H5033.18C5058.48 744.35 5078.28 751.683 5092.58 766.35C5106.88 780.65 5114.03 800.45 5114.03 825.75V886.8C5114.03 912.467 5106.88 932.45 5092.58 946.75C5078.28 961.05 5058.48 968.2 5033.18 968.2H4942.43C4938.76 968.2 4936.93 969.85 4936.93 973.15V1090.3C4936.93 1095.43 4934.36 1098 4929.23 1098ZM4942.43 932.45H5027.68C5058.48 932.45 5073.88 916.683 5073.88 885.15V827.4C5073.88 795.5 5058.48 779.55 5027.68 779.55H4942.43C4938.76 779.55 4936.93 781.2 4936.93 784.5V927.5C4936.93 930.8 4938.76 932.45 4942.43 932.45Z" fill="url(#paint31_linear)"/>
<g id="wing" style="mix-blend-mode:multiply">
<path d="M1085.5 469L1073.5 542.5C1043.55 456.35 1020.17 411.099 962 338L956 318C1010.74 163.994 1004.29 127.603 998.5 55C1060.23 155.025 1072.85 215.241 1085.5 324.5C1088.58 390.663 1087.49 418.546 1085.56 467.408L1085.5 469Z" fill="url(#paint32_linear)"/>
<path d="M1085.5 469L1073.5 542.5C1043.55 456.35 1020.17 411.099 962 338L956 318C1010.74 163.994 1004.29 127.603 998.5 55C1060.23 155.025 1072.85 215.241 1085.5 324.5C1088.58 390.663 1087.49 418.546 1085.56 467.408L1085.5 469Z" fill="url(#paint33_linear)"/>
<path d="M1085.5 469L1073.5 542.5C1043.55 456.35 1020.17 411.099 962 338L956 318C1010.74 163.994 1004.29 127.603 998.5 55C1060.23 155.025 1072.85 215.241 1085.5 324.5C1088.58 390.663 1087.49 418.546 1085.56 467.408L1085.5 469Z" fill="url(#paint34_radial)"/>
<path d="M1115 240.5C1126.7 387.535 1119.87 456.452 1091 562.5C1171.5 488.935 1212.16 442.662 1269.5 343C1311.31 208.065 1320.28 133.247 1298 2C1261.76 91.9762 1226.96 143.723 1115 240.5Z" fill="url(#paint35_linear)"/>
<path d="M1115 240.5C1126.7 387.535 1119.87 456.452 1091 562.5C1171.5 488.935 1212.16 442.662 1269.5 343C1311.31 208.065 1320.28 133.247 1298 2C1261.76 91.9762 1226.96 143.723 1115 240.5Z" fill="url(#paint36_linear)"/>
<path d="M1115 240.5C1126.7 387.535 1119.87 456.452 1091 562.5C1171.5 488.935 1212.16 442.662 1269.5 343C1311.31 208.065 1320.28 133.247 1298 2C1261.76 91.9762 1226.96 143.723 1115 240.5Z" fill="url(#paint37_radial)"/>
<path d="M1320.5 318C1249.81 451.504 1200.58 502.396 1103.5 570C1345.65 481.299 1438.87 399.471 1513 184C1463.05 239.503 1423.74 269.199 1320.5 318Z" fill="url(#paint38_linear)"/>
<path d="M1320.5 318C1249.81 451.504 1200.58 502.396 1103.5 570C1345.65 481.299 1438.87 399.471 1513 184C1463.05 239.503 1423.74 269.199 1320.5 318Z" fill="url(#paint39_linear)"/>
<path d="M1320.5 318C1249.81 451.504 1200.58 502.396 1103.5 570C1345.65 481.299 1438.87 399.471 1513 184C1463.05 239.503 1423.74 269.199 1320.5 318Z" fill="url(#paint40_radial)"/>
<path d="M1344.5 474C1284.7 529.44 1238.37 550.744 1143 579C1242.86 581.971 1299.06 578.558 1400.5 542.5C1515.6 481.707 1555.41 443.018 1599.5 369C1521.21 437.892 1463.9 458.957 1344.5 474Z" fill="url(#paint41_linear)"/>
<path d="M1344.5 474C1284.7 529.44 1238.37 550.744 1143 579C1242.86 581.971 1299.06 578.558 1400.5 542.5C1515.6 481.707 1555.41 443.018 1599.5 369C1521.21 437.892 1463.9 458.957 1344.5 474Z" fill="url(#paint42_linear)"/>
<path d="M1344.5 474C1284.7 529.44 1238.37 550.744 1143 579C1242.86 581.971 1299.06 578.558 1400.5 542.5C1515.6 481.707 1555.41 443.018 1599.5 369C1521.21 437.892 1463.9 458.957 1344.5 474Z" fill="url(#paint43_radial)"/>
<path d="M1085.5 469L1073.5 542.5C1043.55 456.35 1020.17 411.099 962 338L956 318C1010.74 163.994 1004.29 127.603 998.5 55C1060.23 155.025 1072.85 215.241 1085.5 324.5C1088.58 390.663 1087.49 418.546 1085.56 467.408L1085.5 469Z" stroke="black"/>
<path d="M1115 240.5C1126.7 387.535 1119.87 456.452 1091 562.5C1171.5 488.935 1212.16 442.662 1269.5 343C1311.31 208.065 1320.28 133.247 1298 2C1261.76 91.9762 1226.96 143.723 1115 240.5Z" stroke="black"/>
<path d="M1320.5 318C1249.81 451.504 1200.58 502.396 1103.5 570C1345.65 481.299 1438.87 399.471 1513 184C1463.05 239.503 1423.74 269.199 1320.5 318Z" stroke="black"/>
<path d="M1344.5 474C1284.7 529.44 1238.37 550.744 1143 579C1242.86 581.971 1299.06 578.558 1400.5 542.5C1515.6 481.707 1555.41 443.018 1599.5 369C1521.21 437.892 1463.9 458.957 1344.5 474Z" stroke="black"/>
</g>
</g>
<defs>
<filter id="filter0_dd" x="391.322" y="524.694" width="378.729" height="152.211" filterUnits="userSpaceOnUse" color-interpolation-filters="sRGB">
<feFlood flood-opacity="0" result="BackgroundImageFix"/>
<feColorMatrix in="SourceAlpha" type="matrix" values="0 0 0 0 0 0 0 0 0 0 0 0 0 0 0 0 0 0 127 0"/>
<feOffset dy="4"/>
<feGaussianBlur stdDeviation="2"/>
<feColorMatrix type="matrix" values="0 0 0 0 0 0 0 0 0 0 0 0 0 0 0 0 0 0 0.25 0"/>
<feBlend mode="normal" in2="BackgroundImageFix" result="effect1_dropShadow"/>
<feColorMatrix in="SourceAlpha" type="matrix" values="0 0 0 0 0 0 0 0 0 0 0 0 0 0 0 0 0 0 127 0"/>
<feOffset dy="10"/>
<feGaussianBlur stdDeviation="2"/>
<feColorMatrix type="matrix" values="0 0 0 0 0 0 0 0 0 0 0 0 0 0 0 0 0 0 0.25 0"/>
<feBlend mode="normal" in2="effect1_dropShadow" result="effect2_dropShadow"/>
<feBlend mode="normal" in="SourceGraphic" in2="effect2_dropShadow" result="shape"/>
</filter>
<filter id="filter1_d" x="223.079" y="942.572" width="670.648" height="702.677" filterUnits="userSpaceOnUse" color-interpolation-filters="sRGB">
<feFlood flood-opacity="0" result="BackgroundImageFix"/>
<feColorMatrix in="SourceAlpha" type="matrix" values="0 0 0 0 0 0 0 0 0 0 0 0 0 0 0 0 0 0 127 0"/>
<feOffset dy="10"/>
<feGaussianBlur stdDeviation="2"/>
<feColorMatrix type="matrix" values="0 0 0 0 0 0 0 0 0 0 0 0 0 0 0 0 0 0 0.25 0"/>
<feBlend mode="normal" in2="BackgroundImageFix" result="effect1_dropShadow"/>
<feBlend mode="normal" in="SourceGraphic" in2="effect1_dropShadow" result="shape"/>
</filter>
<filter id="filter2_d" x="565.29" y="460.3" width="854.91" height="706.9" filterUnits="userSpaceOnUse" color-interpolation-filters="sRGB">
<feFlood flood-opacity="0" result="BackgroundImageFix"/>
<feColorMatrix in="SourceAlpha" type="matrix" values="0 0 0 0 0 0 0 0 0 0 0 0 0 0 0 0 0 0 127 0"/>
<feOffset dy="10"/>
<feGaussianBlur stdDeviation="2"/>
<feColorMatrix type="matrix" values="0 0 0 0 0 0 0 0 0 0 0 0 0 0 0 0 0 0 0.25 0"/>
<feBlend mode="normal" in2="BackgroundImageFix" result="effect1_dropShadow"/>
<feBlend mode="normal" in="SourceGraphic" in2="effect1_dropShadow" result="shape"/>
</filter>
<filter id="filter3_d" x="1331.25" y="809.75" width="438" height="593.93" filterUnits="userSpaceOnUse" color-interpolation-filters="sRGB">
<feFlood flood-opacity="0" result="BackgroundImageFix"/>
<feColorMatrix in="SourceAlpha" type="matrix" values="0 0 0 0 0 0 0 0 0 0 0 0 0 0 0 0 0 0 127 0"/>
<feOffset dy="14"/>
<feGaussianBlur stdDeviation="2"/>
<feColorMatrix type="matrix" values="0 0 0 0 0 0 0 0 0 0 0 0 0 0 0 0 0 0 0.25 0"/>
<feBlend mode="normal" in2="BackgroundImageFix" result="effect1_dropShadow"/>
<feBlend mode="normal" in="SourceGraphic" in2="effect1_dropShadow" result="shape"/>
</filter>
<radialGradient id="paint0_diamond" cx="0" cy="0" r="1" gradientUnits="userSpaceOnUse" gradientTransform="translate(590.5 590.5) rotate(158.091) scale(247.904 656.518)">
<stop offset="0.144883" stop-color="#FC0641"/>
<stop offset="0.9375" stop-color="#3E292E" stop-opacity="0.25"/>
</radialGradient>
<radialGradient id="paint1_radial" cx="0" cy="0" r="1" gradientUnits="userSpaceOnUse" gradientTransform="translate(558 1241) rotate(90) scale(121 116.42)">
<stop offset="0.579318"/>
<stop offset="0.880208" stop-color="#DC2910"/>
</radialGradient>
<linearGradient id="paint2_linear" x1="384.5" y1="2113" x2="803.5" y2="882" gradientUnits="userSpaceOnUse">
<stop/>
<stop offset="0.807212" stop-color="#FF5858" stop-opacity="0.85"/>
</linearGradient>
<radialGradient id="paint3_radial" cx="0" cy="0" r="1" gradientUnits="userSpaceOnUse" gradientTransform="translate(886 786) rotate(120.543) scale(525.4 642.619)">
<stop stop-color="#FF00E5"/>
<stop offset="1" stop-color="#DD22CA" stop-opacity="0"/>
</radialGradient>
<linearGradient id="paint4_linear" x1="1114" y1="427.5" x2="654.5" y2="500" gradientUnits="userSpaceOnUse">
<stop stop-color="#1DE9DC"/>
<stop offset="1" stop-color="white" stop-opacity="0"/>
</linearGradient>
<radialGradient id="paint5_radial" cx="0" cy="0" r="1" gradientUnits="userSpaceOnUse" gradientTransform="translate(712.5 933) rotate(117.901) scale(422.061 516.224)">
<stop stop-color="#197C35"/>
<stop offset="1" stop-color="#16C447" stop-opacity="0"/>
</radialGradient>
<linearGradient id="paint6_linear" x1="1117.5" y1="807" x2="1441.5" y2="409" gradientUnits="userSpaceOnUse">
<stop stop-color="#DB00FF" stop-opacity="0"/>
<stop offset="0.95348" stop-color="#D900FD"/>
</linearGradient>
<radialGradient id="paint7_radial" cx="0" cy="0" r="1" gradientUnits="userSpaceOnUse" gradientTransform="translate(1549.75 1124.75) rotate(57.0193) scale(375.214 279.539)">
<stop stop-color="#C4C4C4" stop-opacity="0"/>
<stop offset="0.635417" stop-color="#7B048E"/>
</radialGradient>
<linearGradient id="paint8_linear" x1="1456.5" y1="1036" x2="1575.5" y2="1408.5" gradientUnits="userSpaceOnUse">
<stop stop-color="#19A7F7"/>
<stop offset="0.942708" stop-color="white" stop-opacity="0"/>
</linearGradient>
<radialGradient id="paint9_radial" cx="0" cy="0" r="1" gradientUnits="userSpaceOnUse" gradientTransform="translate(1507.5 1048) rotate(57.7244) scale(292.139 371.586)">
<stop stop-color="#02F0FF"/>
<stop offset="1" stop-color="#00EEFD" stop-opacity="0"/>
</radialGradient>
<radialGradient id="paint10_radial" cx="0" cy="0" r="1" gradientUnits="userSpaceOnUse" gradientTransform="translate(1536 1098) rotate(-119.745) scale(403.113 147.302)">
<stop stop-color="#FF4545"/>
<stop offset="1" stop-color="#FF0E0E" stop-opacity="0"/>
</radialGradient>
<radialGradient id="paint11_radial" cx="0" cy="0" r="1" gradientUnits="userSpaceOnUse" gradientTransform="translate(1549.75 1124.75) rotate(57.0193) scale(375.214 279.539)">
<stop stop-color="#C4C4C4" stop-opacity="0"/>
<stop offset="0.635417" stop-color="#7B048E"/>
</radialGradient>
<linearGradient id="paint12_linear" x1="1456.5" y1="1036" x2="1575.5" y2="1408.5" gradientUnits="userSpaceOnUse">
<stop stop-color="#19A7F7"/>
<stop offset="0.942708" stop-color="white" stop-opacity="0"/>
</linearGradient>
<radialGradient id="paint13_radial" cx="0" cy="0" r="1" gradientUnits="userSpaceOnUse" gradientTransform="translate(1507.5 1048) rotate(57.7244) scale(292.139 371.586)">
<stop stop-color="#02F0FF"/>
<stop offset="1" stop-color="#00EEFD" stop-opacity="0"/>
</radialGradient>
<radialGradient id="paint14_radial" cx="0" cy="0" r="1" gradientUnits="userSpaceOnUse" gradientTransform="translate(1536 1098) rotate(-119.745) scale(403.113 147.302)">
<stop stop-color="#FF4545"/>
<stop offset="1" stop-color="#FF0E0E" stop-opacity="0"/>
</radialGradient>
<radialGradient id="paint15_radial" cx="0" cy="0" r="1" gradientUnits="userSpaceOnUse" gradientTransform="translate(1549.75 1124.75) rotate(57.0193) scale(375.214 279.539)">
<stop stop-color="#C4C4C4" stop-opacity="0"/>
<stop offset="0.635417" stop-color="#7B048E"/>
</radialGradient>
<linearGradient id="paint16_linear" x1="1456.5" y1="1036" x2="1575.5" y2="1408.5" gradientUnits="userSpaceOnUse">
<stop stop-color="#19A7F7"/>
<stop offset="0.942708" stop-color="white" stop-opacity="0"/>
</linearGradient>
<radialGradient id="paint17_radial" cx="0" cy="0" r="1" gradientUnits="userSpaceOnUse" gradientTransform="translate(1507.5 1048) rotate(57.7244) scale(292.139 371.586)">
<stop stop-color="#02F0FF"/>
<stop offset="1" stop-color="#00EEFD" stop-opacity="0"/>
</radialGradient>
<radialGradient id="paint18_radial" cx="0" cy="0" r="1" gradientUnits="userSpaceOnUse" gradientTransform="translate(1536 1098) rotate(-119.745) scale(403.113 147.302)">
<stop stop-color="#FF4545"/>
<stop offset="1" stop-color="#FF0E0E" stop-opacity="0"/>
</radialGradient>
<radialGradient id="paint19_radial" cx="0" cy="0" r="1" gradientUnits="userSpaceOnUse" gradientTransform="translate(1549.75 1124.75) rotate(57.0193) scale(375.214 279.539)">
<stop stop-color="#C4C4C4" stop-opacity="0"/>
<stop offset="0.635417" stop-color="#7B048E"/>
</radialGradient>
<linearGradient id="paint20_linear" x1="1456.5" y1="1036" x2="1575.5" y2="1408.5" gradientUnits="userSpaceOnUse">
<stop stop-color="#19A7F7"/>
<stop offset="0.942708" stop-color="white" stop-opacity="0"/>
</linearGradient>
<radialGradient id="paint21_radial" cx="0" cy="0" r="1" gradientUnits="userSpaceOnUse" gradientTransform="translate(1507.5 1048) rotate(57.7244) scale(292.139 371.586)">
<stop stop-color="#02F0FF"/>
<stop offset="1" stop-color="#00EEFD" stop-opacity="0"/>
</radialGradient>
<radialGradient id="paint22_radial" cx="0" cy="0" r="1" gradientUnits="userSpaceOnUse" gradientTransform="translate(1536 1098) rotate(-119.745) scale(403.113 147.302)">
<stop stop-color="#FF4545"/>
<stop offset="1" stop-color="#FF0E0E" stop-opacity="0"/>
</radialGradient>
<radialGradient id="paint23_radial" cx="0" cy="0" r="1" gradientUnits="userSpaceOnUse" gradientTransform="translate(1549.75 1124.75) rotate(57.0193) scale(375.214 279.539)">
<stop stop-color="#C4C4C4" stop-opacity="0"/>
<stop offset="0.635417" stop-color="#7B048E"/>
</radialGradient>
<linearGradient id="paint24_linear" x1="1456.5" y1="1036" x2="1575.5" y2="1408.5" gradientUnits="userSpaceOnUse">
<stop stop-color="#19A7F7"/>
<stop offset="0.942708" stop-color="white" stop-opacity="0"/>
</linearGradient>
<radialGradient id="paint25_radial" cx="0" cy="0" r="1" gradientUnits="userSpaceOnUse" gradientTransform="translate(1507.5 1048) rotate(57.7244) scale(292.139 371.586)">
<stop stop-color="#02F0FF"/>
<stop offset="1" stop-color="#00EEFD" stop-opacity="0"/>
</radialGradient>
<radialGradient id="paint26_radial" cx="0" cy="0" r="1" gradientUnits="userSpaceOnUse" gradientTransform="translate(1536 1098) rotate(-119.745) scale(403.113 147.302)">
<stop stop-color="#FF4545"/>
<stop offset="1" stop-color="#FF0E0E" stop-opacity="0"/>
</radialGradient>
<radialGradient id="paint27_radial" cx="0" cy="0" r="1" gradientUnits="userSpaceOnUse" gradientTransform="translate(890 529) rotate(92.9815) scale(96.1301)">
<stop stop-color="#F40707"/>
<stop offset="1" stop-color="#FF3D00" stop-opacity="0"/>
</radialGradient>
<radialGradient id="paint28_radial" cx="0" cy="0" r="1" gradientUnits="userSpaceOnUse" gradientTransform="translate(890.5 528) rotate(91.4189) scale(28.0086 28.6758)">
<stop offset="0.364583"/>
<stop offset="1" stop-opacity="0"/>
</radialGradient>
<linearGradient id="paint29_linear" x1="2930" y1="1290" x2="2929.75" y2="2005.5" gradientUnits="userSpaceOnUse">
<stop stop-color="#252B29"/>
<stop offset="1" stop-color="#533535" stop-opacity="0"/>
</linearGradient>
<linearGradient id="paint30_linear" x1="866.25" y1="488.816" x2="866.25" y2="593" gradientUnits="userSpaceOnUse">
<stop stop-color="white"/>
<stop offset="1" stop-color="white" stop-opacity="0"/>
</linearGradient>
<linearGradient id="paint31_linear" x1="3640" y1="361" x2="3640" y2="1513" gradientUnits="userSpaceOnUse">
<stop/>
<stop offset="1" stop-opacity="0"/>
</linearGradient>
<linearGradient id="paint32_linear" x1="843.5" y1="160.5" x2="1600" y2="689" gradientUnits="userSpaceOnUse">
<stop stop-color="#FF2358"/>
<stop offset="1" stop-color="#FF174F" stop-opacity="0"/>
</linearGradient>
<linearGradient id="paint33_linear" x1="1461.5" y1="580" x2="1201.5" y2="127" gradientUnits="userSpaceOnUse">
<stop stop-color="#22BDFF"/>
<stop offset="1" stop-color="white" stop-opacity="0"/>
</linearGradient>
<radialGradient id="paint34_radial" cx="0" cy="0" r="1" gradientUnits="userSpaceOnUse" gradientTransform="translate(1191.5 452.5) rotate(128.735) scale(298.058 150.741)">
<stop stop-color="#FAE107"/>
<stop offset="1" stop-color="#FCE517" stop-opacity="0"/>
</radialGradient>
<linearGradient id="paint35_linear" x1="843.5" y1="160.5" x2="1600" y2="689" gradientUnits="userSpaceOnUse">
<stop stop-color="#FF2358"/>
<stop offset="1" stop-color="#FF174F" stop-opacity="0"/>
</linearGradient>
<linearGradient id="paint36_linear" x1="1461.5" y1="580" x2="1201.5" y2="127" gradientUnits="userSpaceOnUse">
<stop stop-color="#22BDFF"/>
<stop offset="1" stop-color="white" stop-opacity="0"/>
</linearGradient>
<radialGradient id="paint37_radial" cx="0" cy="0" r="1" gradientUnits="userSpaceOnUse" gradientTransform="translate(1191.5 452.5) rotate(128.735) scale(298.058 150.741)">
<stop stop-color="#FAE107"/>
<stop offset="1" stop-color="#FCE517" stop-opacity="0"/>
</radialGradient>
<linearGradient id="paint38_linear" x1="843.5" y1="160.5" x2="1600" y2="689" gradientUnits="userSpaceOnUse">
<stop stop-color="#FF2358"/>
<stop offset="1" stop-color="#FF174F" stop-opacity="0"/>
</linearGradient>
<linearGradient id="paint39_linear" x1="1461.5" y1="580" x2="1201.5" y2="127" gradientUnits="userSpaceOnUse">
<stop stop-color="#22BDFF"/>
<stop offset="1" stop-color="white" stop-opacity="0"/>
</linearGradient>
<radialGradient id="paint40_radial" cx="0" cy="0" r="1" gradientUnits="userSpaceOnUse" gradientTransform="translate(1191.5 452.5) rotate(128.735) scale(298.058 150.741)">
<stop stop-color="#FAE107"/>
<stop offset="1" stop-color="#FCE517" stop-opacity="0"/>
</radialGradient>
<linearGradient id="paint41_linear" x1="843.5" y1="160.5" x2="1600" y2="689" gradientUnits="userSpaceOnUse">
<stop stop-color="#FF2358"/>
<stop offset="1" stop-color="#FF174F" stop-opacity="0"/>
</linearGradient>
<linearGradient id="paint42_linear" x1="1461.5" y1="580" x2="1201.5" y2="127" gradientUnits="userSpaceOnUse">
<stop stop-color="#22BDFF"/>
<stop offset="1" stop-color="white" stop-opacity="0"/>
</linearGradient>
<radialGradient id="paint43_radial" cx="0" cy="0" r="1" gradientUnits="userSpaceOnUse" gradientTransform="translate(1191.5 452.5) rotate(128.735) scale(298.058 150.741)">
<stop stop-color="#FAE107"/>
<stop offset="1" stop-color="#FCE517" stop-opacity="0"/>
</radialGradient>
</defs>
</svg>
